<svg version="1.1" xmlns="http://www.w3.org/2000/svg" xmlns:xlink="http://www.w3.org/1999/xlink" x="0px" y="0px" width="58.37px" height="23.01px" viewBox="0 0 58.37 23.01">

	<path 
		fill="#363334" 
		d="M46.927,6.012c0-1.064,0.756-1.914,1.845-1.914c1.086,0,1.842,0.85,1.842,1.914v3.986h0.047c0.758-0.472,2.102-1.166,3.52-1.166c2.553,0,4.188,1.836,4.188,4.862v6.831c0,1.062-0.756,1.915-1.844,1.915c-1.086,0-1.844-0.853-1.844-1.915v-5.838c0-1.278-0.757-2.223-2.033-2.223c-1.277,0-2.033,0.944-2.033,2.223v5.838c0,1.062-0.756,1.915-1.842,1.915c-1.089,0-1.845-0.853-1.845-1.915V6.012z"
	/>

	<path 
		fill="#363334" 
		d="M4.166,7.764c0.672-1.976,1.251-3.676,3.125-3.676c1.923,0,2.501,1.7,3.172,3.676l3.611,10.524c0.485,1.427,0.556,1.9,0.556,2.5c0,1.001-0.742,1.652-1.806,1.652c-1.227,0-1.62-0.851-1.969-1.976l-0.952-3.602H4.878l-1.106,3.602c-0.346,1.125-0.74,1.976-1.966,1.976C0.74,22.44,0,21.789,0,20.788c0-0.6,0.069-1.073,0.555-2.5L4.166,7.764z M7.408,8.588H7.361l-1.735,5.401H9.02L7.408,8.588z"
	/>

	<path 
		fill="#363334" 
		d="M14.879,6.012c0-1.064,0.707-1.914,1.724-1.914c1.016,0,1.723,0.85,1.723,1.914v14.514c0,1.062-0.707,1.915-1.723,1.915c-1.017,0-1.724-0.853-1.724-1.915V6.012z"/>
	
	<path 
		fill="#363334" 
		d="M19.079,7.094c0-1.063,0.757-1.916,1.844-1.916s1.843,0.853,1.843,1.916v2.117h0.423c1.183,0,1.939,0.5,1.939,1.36c0,0.938-0.756,1.409-1.939,1.409h-0.423v8.545c0,1.062-0.756,1.915-1.843,1.915s-1.844-0.853-1.844-1.915V7.094z"
	/>
	
	<path 
		fill="#363334" 
		d="M27.867,16.93c0,0.82,0.609,2.164,3.043,2.164c1.875,0,3.02-1.219,3.896-1.219c0.851,0,1.582,0.672,1.582,1.666c0,1.891-3.092,3.135-5.964,3.135c-4.09,0-6.647-3.109-6.647-7.016c0-3.73,2.752-7.015,6.647-7.015c3.75,0,6.159,3.209,6.159,6.592c0,1.368-0.634,1.692-1.851,1.692H27.867z M32.785,14.269c0-0.87-0.975-2.339-2.459-2.339s-2.459,1.469-2.459,2.339H32.785z"
	/>
	
	<path 
		fill="#B5B0B1" 
		d="M41.171,9.645c0,0,0.704-1.514,0.828-2.281c0.12-0.768,0.271-2.966,1.687-4.85C45.533,0.058,47.613,0,47.613,0s-0.797,1.795-0.797,3.159c0,1.365,0.178,2.595-0.953,4.082C44.4,9.163,41.171,9.645,41.171,9.645"
	/>

	<path 
		fill="#B5B0B1" 
		d="M47.859,5.799c0,0,0.244,1.982-0.217,4.633c-0.457,2.648-1.261,6.193-3.712,9.266c-2.45,3.074-4.401,3.314-5.522,3.314c-1.119,0-5.071-0.723-5.071-5.704c0-7.355,7.628-11.272,7.628-11.272s-1.648,2.057-1.648,3.844s1.064,2,1.717,2C43.885,11.879,47.859,5.799,47.859,5.799"/>
</svg>
