<svg version="1.1" xmlns="http://www.w3.org/2000/svg" xmlns:xlink="http://www.w3.org/1999/xlink" x="0px" y="0px" width="145px" height="341px" viewBox="0 0.001 145 341" overflow="visible" enable-background="new 0 0.001 145 341" xml:space="preserve">

	<defs>
		
		<rect 
			id="SVGID_1_" 
			height="341.218"
			width="145.4" 
			y="0.001" 
		/>
	
		<rect 
			id="SVGID_2_" 
			height="341.218"
			width="145.4" 
			y="0.001" 
		/>

	</defs>

	<clipPath id="SVGID_4_">
		<use xlink:href="#SVGID_1_"  overflow="visible"/>
	</clipPath>

	<clipPath id="SVGID_5_">
		<use xlink:href="#SVGID_2_"  overflow="visible"/>
	</clipPath>

	<g clip-path="url(#SVGID_4_)">

		<g opacity="0.15" clip-path="url(#SVGID_5_)">
			<defs>
				<rect 
					id="SVGID_3_" 
					height="341.218"
					width="145.4" 
					y="0.001" 
				/>
			</defs>

			<clipPath id="SVGID_6_">
				<use xlink:href="#SVGID_3_"  overflow="visible"/>
			</clipPath>
			
			<!-- TOP FLAME -->
			<path 
				clip-path="url(#SVGID_6_)" 
				fill="#FFFFFF" 
				d="M64.767,0.009c0,0-11.496,52.506-33.95,79.292C8.36,106.092-6.875,129.309,3.133,191.543l-0.062-0.011c0,0,11.502-52.5,33.956-79.295C59.481,85.452,74.716,62.244,64.717,0
				L64.767,0.009z"
			/>
			
			<!-- CENTER FLAME -->
			<path 
				clip-path="url(#SVGID_6_)" 
				fill="#FFFFFF" 
				d="M73.6,0.853c0,0,17.729,91.024-27.702,144.456C0.47,198.746-25.013,243.263,73.6,341.219H73.4c0,0-17.723-91.027,27.698-144.456c45.428-53.428,70.914-97.954-27.698-195.91
				H73.6z"/>

			<!-- BOTTOM FLAME -->
			<path 
				clip-path="url(#SVGID_6_)" 
				fill="#FFFFFF" 
				d="M142.328,149.42c0,0-11.496,52.5-33.953,79.289c-22.457,26.792-37.695,49.996-27.688,112.236l-0.056-0.012c0,0,11.498-52.502,33.955-79.282c22.451-26.792,37.686-50.005,27.681-112.234L142.328,149.42z"
			/>

		</g>
	</g>
</svg>