<svg version="1.1"
	 xmlns="http://www.w3.org/2000/svg" xmlns:xlink="http://www.w3.org/1999/xlink" xmlns:a="http://ns.adobe.com/AdobeSVGViewerExtensions/3.0/"
	 x="0px" y="0px" width="57px" height="74px" viewBox="0 0 57 74" overflow="visible" enable-background="new 0 0 57 74"
	 xml:space="preserve">

<g>
	<defs>
		<rect id="SVGID_1_" width="56.608" height="73.869"/>
	</defs>
	<clipPath id="SVGID_2_">
		<use xlink:href="#SVGID_1_"  overflow="visible"/>
	</clipPath>
	<path clip-path="url(#SVGID_2_)" fill="#C03B27" d="M26.216,51.969c1.338-1.596,2.247-2.98,1.653-6.688
		c-0.019,0.086-0.703,3.147-2.023,4.723c-1.332,1.588-2.236,2.968-1.661,6.628c0.003,0.02,0.005,0.038,0.008,0.057
		c0.001-0.007,0.006-0.025,0.013-0.057C24.308,56.191,24.986,53.437,26.216,51.969"/>
	<path clip-path="url(#SVGID_2_)" fill="#C03B27" d="M28.399,45.419c0.03,0.159,1.015,5.503-1.654,8.643
		c-0.775,0.91-1.451,1.014-1.886,2.73h5.496C32.854,54.217,34.03,51.02,28.399,45.419"/>
	<polyline clip-path="url(#SVGID_2_)" fill="#C03B27" points="32.497,54.187 32.493,54.187 32.495,54.196 32.497,54.187 	"/>
	<path clip-path="url(#SVGID_2_)" fill="#C03B27" d="M32.495,54.356c-0.015,0.062-0.27,0.719-0.761,2.436h0.938
		C32.7,55.934,32.646,55.308,32.495,54.356"/>
	<polygon clip-path="url(#SVGID_2_)" fill="#C03B27" points="24.194,56.699 24.193,56.689 24.19,56.698 	"/>
	
		<rect x="1.554" y="0.5" clip-path="url(#SVGID_2_)" fill="none" stroke="#363334" stroke-miterlimit="10" width="53.344" height="39.699"/>
	
		<rect x="46.779" y="40.199" clip-path="url(#SVGID_2_)" fill="none" stroke="#363334" stroke-miterlimit="10" width="2.941" height="18.754"/>
	
		<rect x="6.754" y="40.199" clip-path="url(#SVGID_2_)" fill="none" stroke="#363334" stroke-miterlimit="10" width="2.942" height="18.754"/>
	
		<line clip-path="url(#SVGID_2_)" fill="none" stroke="#363334" stroke-width="0.5" stroke-miterlimit="10" x1="56.188" y1="71.329" x2="0.5" y2="71.329"/>
	
		<line clip-path="url(#SVGID_2_)" fill="none" stroke="#363334" stroke-width="0.5" stroke-miterlimit="10" x1="0.5" y1="69.633" x2="56.187" y2="69.633"/>
	
		<line clip-path="url(#SVGID_2_)" fill="none" stroke="#363334" stroke-width="0.5" stroke-miterlimit="10" x1="56.188" y1="69.744" x2="0.5" y2="69.744"/>
	
		<line clip-path="url(#SVGID_2_)" fill="none" stroke="#363334" stroke-width="0.5" stroke-miterlimit="10" x1="0.5" y1="68.048" x2="56.187" y2="68.048"/>
	
		<rect x="0.5" y="58.953" clip-path="url(#SVGID_2_)" fill="none" stroke="#363334" stroke-miterlimit="10" width="55.608" height="7.208"/>
	
		<rect x="0.5" y="66.161" clip-path="url(#SVGID_2_)" fill="none" stroke="#363334" stroke-miterlimit="10" width="55.608" height="7.208"/>
	
		<rect x="9.696" y="41.187" clip-path="url(#SVGID_2_)" fill="none" stroke="#363334" stroke-width="0.5" stroke-miterlimit="10" width="37.083" height="1.935"/>
	
		<line clip-path="url(#SVGID_2_)" fill="none" stroke="#363334" stroke-miterlimit="10" x1="13.007" y1="43.121" x2="13.007" y2="58.965"/>
	
		<line clip-path="url(#SVGID_2_)" fill="none" stroke="#363334" stroke-width="0.5" stroke-miterlimit="10" x1="45.507" y1="43.121" x2="45.507" y2="58.953"/>
	
		<line 
			clip-path="url(#SVGID_2_)" 
			fill="none" 
			stroke="#363334" 
			stroke-width="0.5" 
			stroke-miterlimit="10" 
			x1="44.669" 
			x2="44.669" 
			y1="43.121" 
			y2="58.953"
		/>
	
		<line clip-path="url(#SVGID_2_)" fill="none" stroke="#363334" stroke-width="0.5" stroke-miterlimit="10" x1="11.757" y1="43.121" x2="11.757" y2="58.953"/>
	
		<line clip-path="url(#SVGID_2_)" fill="none" stroke="#363334" stroke-width="0.5" stroke-miterlimit="10" x1="10.918" y1="43.121" x2="10.918" y2="58.953"/>
	
		<line clip-path="url(#SVGID_2_)" fill="none" stroke="#363334" stroke-miterlimit="10" x1="43.507" y1="43.121" x2="43.507" y2="58.953"/>
	
		<line clip-path="url(#SVGID_2_)" fill="none" stroke="#363334" stroke-width="0.5" stroke-miterlimit="10" x1="3.882" y1="3.729" x2="3.882" y2="37.319"/>
	
		<line clip-path="url(#SVGID_2_)" fill="none" stroke="#363334" stroke-width="0.5" stroke-miterlimit="10" x1="13.007" y1="56.905" x2="43.507" y2="56.905"/>
</g>
</svg>
