<svg version="1.1" xmlns="http://www.w3.org/2000/svg" xmlns:xlink="http://www.w3.org/1999/xlink" xmlns:a="http://ns.adobe.com/AdobeSVGViewerExtensions/3.0/" x="0px" y="0px" width="290px" height="32px" viewBox="0 0 290 32" overflow="visible" enable-background="new 0 0 290 32" xml:space="preserve">
<defs>
</defs>
<polygon fill="#FFFFFF" points="0,4.513 0,31.941 33.822,31.941 33.822,26.56 5.383,26.56 5.383,19.809 28.588,19.809 
	28.588,14.427 5.383,14.427 5.383,9.894 33.822,9.894 33.822,4.513 "/>
<g>
	<defs>
		<rect id="SVGID_1_" y="0" width="290" height="32.015"/>
	</defs>
	<clipPath id="SVGID_2_">
		<use xlink:href="#SVGID_1_"  overflow="visible"/>
	</clipPath>
	<path clip-path="url(#SVGID_2_)" fill="#FFFFFF" d="M51.309,31.941c-2.995,0-5.495-0.346-7.5-1.039
		c-3.069-1.04-4.604-2.722-4.604-5.048V10.636c0-2.227,1.547-3.884,4.642-4.974c2.153-0.766,4.641-1.15,7.462-1.15h21.719v5.381
		H51.309c-4.381,0-6.572,0.978-6.572,2.933v11.357c0,1.584,2.191,2.376,6.572,2.376h21.719v5.382H51.309z"/>
	<polygon clip-path="url(#SVGID_2_)" fill="#FFFFFF" points="133.846,9.894 133.846,14.427 155.641,14.427 155.641,19.809 
		133.846,19.809 133.846,31.941 128.463,31.941 128.463,4.512 162.286,4.512 162.286,9.894 	"/>
	<polygon clip-path="url(#SVGID_2_)" fill="#FFFFFF" points="164.735,31.941 164.735,4.512 170.119,4.512 170.119,26.56 
		189.239,26.56 189.239,31.941 	"/>
	<path clip-path="url(#SVGID_2_)" fill="#FFFFFF" d="M220.982,31.942v-8.574h-23.057v8.574h-5.383V13.197
		c0-2.82,1.374-5.035,4.121-6.643c2.326-1.361,5-2.042,8.019-2.042h9.208c2.945,0,5.644,0.705,8.095,2.116
		c2.92,1.658,4.381,3.848,4.381,6.569v18.746H220.982z M220.982,14.348c0-1.41-0.867-2.536-2.6-3.377
		c-1.484-0.718-2.982-1.077-4.492-1.077h-9.208c-1.287,0-2.686,0.421-4.194,1.262c-1.708,0.965-2.562,2.029-2.562,3.192v3.637
		h23.057V14.348z"/>
	<path clip-path="url(#SVGID_2_)" fill="#FFFFFF" d="M275.335,31.941V13.681L257.7,31.273c-0.545,0.495-1.176,0.742-1.894,0.742
		c-0.768,0-1.411-0.26-1.931-0.78l-17.375-17.481v18.187h-5.384V7.221c0-0.791,0.21-1.478,0.632-2.06
		c0.42-0.581,1.015-0.872,1.782-0.872c0.767,0,1.497,0.347,2.19,1.039l20.085,20.229l20.346-20.229
		c0.668-0.692,1.385-1.039,2.153-1.039c0.767,0,1.36,0.291,1.781,0.872c0.422,0.582,0.633,1.269,0.633,2.06v24.72H275.335z"/>
	<rect x="284.616" y="3.102" clip-path="url(#SVGID_2_)" fill="#C13B27" width="5.384" height="8.946"/>
	<path clip-path="url(#SVGID_2_)" fill="#FFFFFF" d="M111.979,4.512h-3.32v5.382h3.58c4.306,0,6.46,0.718,6.46,2.153v12.434
		c0,1.385-2.154,2.078-6.46,2.078h-21.8c-4.208,0-6.311-0.693-6.311-2.078V12.047c0-1.435,2.103-2.153,6.311-2.153h3.58V4.512H90.7
		c-2.921,0-5.433,0.359-7.537,1.076c-3.044,1.015-4.566,2.698-4.566,5.048v15.218c0,2.203,1.559,3.836,4.678,4.899
		c2.301,0.792,4.776,1.188,7.425,1.188h21.28c2.796,0,5.296-0.358,7.499-1.077c3.069-1.063,4.604-2.733,4.604-5.01V10.636
		C124.083,6.553,120.049,4.512,111.979,4.512"/>
	<path clip-path="url(#SVGID_2_)" fill="#C13B27" d="M100.697,0.001c0,0-0.772,3.527-2.28,5.326
		c-1.509,1.799-2.532,3.359-1.86,7.539l-0.004-0.001c0,0,0.773-3.526,2.281-5.326c1.508-1.799,2.531-3.358,1.86-7.539L100.697,0.001
		z"/>
	<path clip-path="url(#SVGID_2_)" fill="#C13B27" d="M101.29,0.058c0,0,1.191,6.114-1.861,9.702
		c-3.051,3.59-4.762,6.58,1.861,13.159h-0.013c0,0-1.191-6.114,1.86-9.704c3.051-3.588,4.763-6.579-1.86-13.158H101.29z"/>
	<path clip-path="url(#SVGID_2_)" fill="#C13B27" d="M105.906,10.036c0,0-0.772,3.526-2.281,5.325
		c-1.508,1.8-2.531,3.359-1.859,7.539l-0.004-0.001c0,0,0.772-3.526,2.281-5.325c1.508-1.799,2.531-3.359,1.859-7.538H105.906z"/>
</g>
</svg>
