<?xml version="1.0" encoding="utf-8"?>
<!-- Generator: Adobe Illustrator 15.1.0, SVG Export Plug-In  -->
<!DOCTYPE svg PUBLIC "-//W3C//DTD SVG 1.1//EN" "http://www.w3.org/Graphics/SVG/1.1/DTD/svg11.dtd" [
	<!ENTITY ns_flows "http://ns.adobe.com/Flows/1.0/">
]>
<svg version="1.1"
	 xmlns="http://www.w3.org/2000/svg" xmlns:xlink="http://www.w3.org/1999/xlink" xmlns:a="http://ns.adobe.com/AdobeSVGViewerExtensions/3.0/"
	 x="0px" y="0px" width="50px" height="44px" viewBox="0 0 50 44" overflow="visible" enable-background="new 0 0 50 44"
	 xml:space="preserve">
<defs>
</defs>
<g>
	<defs>
		<rect id="SVGID_1_" width="50" height="44.293"/>
	</defs>
	<clipPath id="SVGID_2_">
		<use xlink:href="#SVGID_1_"  overflow="visible"/>
	</clipPath>
	<path clip-path="url(#SVGID_2_)" fill="#C03B27" d="M23.082,22.936c1.207-1.44,2.026-2.688,1.491-6.03
		c-0.018,0.081-0.635,2.838-1.825,4.258c-1.207,1.44-2.026,2.688-1.491,6.028C21.28,27.092,21.896,24.351,23.082,22.936"/>
	<path clip-path="url(#SVGID_2_)" fill="#C03B27" d="M26.529,27.274c2.442-2.872,3.812-5.162-1.478-10.422
		c0.028,0.148,0.914,4.771-1.493,7.601c-1.216,1.432-2.166,3.194-2.159,4.194h4.174C25.813,28.647,26.12,27.755,26.529,27.274"/>
	<path clip-path="url(#SVGID_2_)" fill="#C03B27" d="M28.745,24.527c-0.021,0.094-0.602,3.12-1.72,4.12h1.472
		C28.903,27.647,29.054,26.452,28.745,24.527"/>
	<path clip-path="url(#SVGID_2_)" fill="#363334" d="M49,43.293H1V1h48V43.293z M50,0H0v44.293h50V0z"/>
	
		<rect x="5.963" y="5.622" clip-path="url(#SVGID_2_)" fill="none" stroke="#363334" stroke-miterlimit="10" width="38.075" height="32.879"/>
	
		<line clip-path="url(#SVGID_2_)" fill="none" stroke="#363334" stroke-width="0.5" stroke-miterlimit="10" x1="5.962" y1="9.39" x2="44.037" y2="9.39"/>
	
		<line clip-path="url(#SVGID_2_)" fill="none" stroke="#363334" stroke-width="0.5" stroke-miterlimit="10" x1="5.962" y1="34.775" x2="44.037" y2="34.775"/>
	
		<line clip-path="url(#SVGID_2_)" fill="none" stroke="#363334" stroke-width="0.5" stroke-miterlimit="10" x1="11.755" y1="5.898" x2="11.755" y2="9.39"/>
	
		<line clip-path="url(#SVGID_2_)" fill="none" stroke="#363334" stroke-width="0.5" stroke-miterlimit="10" x1="25" y1="5.898" x2="25" y2="9.39"/>
	
		<line clip-path="url(#SVGID_2_)" fill="none" stroke="#363334" stroke-width="0.5" stroke-miterlimit="10" x1="38.245" y1="5.898" x2="38.245" y2="9.39"/>
	
		<line clip-path="url(#SVGID_2_)" fill="none" stroke="#363334" stroke-width="0.5" stroke-miterlimit="10" x1="11.755" y1="34.775" x2="11.755" y2="38.267"/>
	
		<line clip-path="url(#SVGID_2_)" fill="none" stroke="#363334" stroke-width="0.5" stroke-miterlimit="10" x1="25" y1="34.775" x2="25" y2="38.267"/>
	
		<line clip-path="url(#SVGID_2_)" fill="none" stroke="#363334" stroke-width="0.5" stroke-miterlimit="10" x1="38.245" y1="34.775" x2="38.245" y2="38.267"/>
	
		<line clip-path="url(#SVGID_2_)" fill="none" stroke="#363334" stroke-width="0.5" stroke-miterlimit="10" x1="5.962" y1="6.92" x2="44.037" y2="6.92"/>
	
		<line clip-path="url(#SVGID_2_)" fill="none" stroke="#363334" stroke-width="0.5" stroke-miterlimit="10" x1="5.962" y1="8.112" x2="44.037" y2="8.112"/>
	
		<line clip-path="url(#SVGID_2_)" fill="none" stroke="#363334" stroke-width="0.5" stroke-miterlimit="10" x1="5.962" y1="35.925" x2="44.037" y2="35.925"/>
	
		<line clip-path="url(#SVGID_2_)" fill="none" stroke="#363334" stroke-width="0.5" stroke-miterlimit="10" x1="5.962" y1="37.117" x2="44.037" y2="37.117"/>
	
		<rect x="13.699" y="15.502" clip-path="url(#SVGID_2_)" fill="none" stroke="#363334" stroke-miterlimit="10" width="22.601" height="13.345"/>
	<path clip-path="url(#SVGID_2_)" fill="#FFFFFF" d="M44.182,29.065h-0.289c-0.928,0-1.687-0.759-1.687-1.687V16.972
		c0-0.928,0.759-1.688,1.687-1.688h0.289c0.928,0,1.688,0.76,1.688,1.688v10.407C45.869,28.307,45.109,29.065,44.182,29.065"/>
	<path clip-path="url(#SVGID_2_)" fill="none" stroke="#363334" stroke-width="0.5" stroke-miterlimit="10" d="M44.182,29.065
		h-0.289c-0.928,0-1.687-0.759-1.687-1.687V16.972c0-0.928,0.759-1.688,1.687-1.688h0.289c0.928,0,1.688,0.76,1.688,1.688v10.407
		C45.869,28.307,45.109,29.065,44.182,29.065z"/>
	<polygon clip-path="url(#SVGID_2_)" fill="#C03B27" points="22.147,27.203 22.146,27.192 22.144,27.202 	"/>
	<polygon clip-path="url(#SVGID_2_)" fill="#C03B27" points="25.46,16.897 25.461,16.905 25.464,16.897 	"/>
	<polygon clip-path="url(#SVGID_2_)" fill="#C03B27" points="25.928,16.943 25.94,16.957 25.938,16.943 	"/>
	<polygon clip-path="url(#SVGID_2_)" fill="#C03B27" points="25.925,35.241 25.925,35.24 25.924,35.24 	"/>
	<polygon clip-path="url(#SVGID_2_)" fill="#C03B27" points="25.938,35.255 25.926,35.241 25.928,35.255 	"/>
	<polygon clip-path="url(#SVGID_2_)" fill="#C03B27" points="29.633,24.937 29.634,24.945 29.636,24.937 	"/>
	<polyline clip-path="url(#SVGID_2_)" fill="#C03B27" points="26.316,35.24 26.319,35.241 26.318,35.231 26.316,35.24 	"/>
</g>
</svg>
