<?xml version="1.0" encoding="utf-8"?>
<!-- Generator: Adobe Illustrator 15.1.0, SVG Export Plug-In  -->
<!DOCTYPE svg PUBLIC "-//W3C//DTD SVG 1.1//EN" "http://www.w3.org/Graphics/SVG/1.1/DTD/svg11.dtd" [
	<!ENTITY ns_flows "http://ns.adobe.com/Flows/1.0/">
]>
<svg version="1.1"
	 xmlns="http://www.w3.org/2000/svg" xmlns:xlink="http://www.w3.org/1999/xlink" xmlns:a="http://ns.adobe.com/AdobeSVGViewerExtensions/3.0/"
	 x="0px" y="0px" width="31px" height="73px" viewBox="0 0 31 73" overflow="visible" enable-background="new 0 0 31 73"
	 xml:space="preserve">
<defs>
</defs>
<g>
	<defs>
		<rect id="SVGID_1_" width="31.16" height="73.137"/>
	</defs>
	<clipPath id="SVGID_2_">
		<use xlink:href="#SVGID_1_"  overflow="visible"/>
	</clipPath>
	<path clip-path="url(#SVGID_2_)" fill="#C03B27" d="M12.583,34.682c2.002-2.388,3.36-4.458,2.472-10.002
		c-0.028,0.129-1.051,4.707-3.026,7.063c-1.991,2.376-3.344,4.44-2.485,9.914c0.005,0.03,0.008,0.056,0.013,0.086
		c0.002-0.011,0.008-0.039,0.019-0.086C9.73,40.998,10.744,36.878,12.583,34.682"/>
	<path clip-path="url(#SVGID_2_)" fill="#C03B27" d="M15.851,24.721c0.045,0.238,1.518,8.149-2.476,12.845
		c-1.159,1.363-2.17,2.003-2.821,4.003h8.221C22.513,37.569,24.272,33.097,15.851,24.721"/>
	<path clip-path="url(#SVGID_2_)" fill="#C03B27" d="M21.974,37.999c0.001,0.005,0.001,0.01,0.002,0.015
		c0.001-0.003,0.003-0.015,0.003-0.015H21.974z"/>
	<path clip-path="url(#SVGID_2_)" fill="#C03B27" d="M21.976,37.926c-0.021,0.093-0.402,1.643-1.137,3.643h1.402
		C22.282,40.569,22.204,39.349,21.976,37.926"/>
	<path clip-path="url(#SVGID_2_)" fill="#C03B27" d="M9.559,41.758c-0.001-0.005-0.001-0.011-0.002-0.017
		c-0.001,0.003-0.004,0.016-0.004,0.016L9.559,41.758z"/>
	<rect x="6.314" y="41.564" clip-path="url(#SVGID_2_)" fill="#FFFFFF" width="18.212" height="3.005"/>
	<path clip-path="url(#SVGID_2_)" fill="none" stroke="#363334" stroke-miterlimit="10" d="M28.19,1.195v34.369v0.282v21.671v12.697
		c0.667-0.071,1.815-0.147,2.47-0.23v-11.87V35.796v-0.181V1.426C30.006,1.344,28.857,1.267,28.19,1.195z"/>
	<path clip-path="url(#SVGID_2_)" fill="none" stroke="#363334" stroke-miterlimit="10" d="M0.5,35.615v0.181v22.318v11.87
		c0.654,0.083,1.663,0.16,2.33,0.23V57.517V35.846v-0.281V1.195C2.163,1.267,1.154,1.344,0.5,1.426V35.615z"/>
	<path clip-path="url(#SVGID_2_)" fill="#363334" d="M15.58,1.5c4.074,0,8.141,0.2,12.099,0.596v33.468v0.281v21.671v12.697v0.571
		c-3.612,0.885-7.776,1.352-12.099,1.352c-4.323,0-8.487-0.467-12.1-1.352v-0.571V57.517V35.846v-0.281V2.097
		C7.438,1.701,11.505,1.5,15.58,1.5 M15.58,0.5c-4.545,0-8.937,0.245-13.1,0.694v34.37v0.281v21.671v12.697v1.348
		c3.706,0.988,8.217,1.575,13.1,1.575c4.882,0,9.394-0.587,13.099-1.575v-1.348V57.517V35.846v-0.281V1.195
		C24.516,0.746,20.125,0.5,15.58,0.5"/>
	<path clip-path="url(#SVGID_2_)" fill="none" stroke="#363334" stroke-width="0.5" stroke-miterlimit="10" d="M28.186,57.459
		c-4.11,0.301-8.317,0.463-12.605,0.463c-4.224,0-8.369-0.157-12.419-0.449"/>
	<path clip-path="url(#SVGID_2_)" fill="none" stroke="#363334" stroke-miterlimit="10" d="M28.679,1.195
		c-4.164-0.449-8.555-0.694-13.099-0.694c-4.545,0-8.936,0.245-13.1,0.694"/>
	
		<line clip-path="url(#SVGID_2_)" fill="none" stroke="#363334" stroke-width="0.5" stroke-miterlimit="10" x1="2.48" y1="3.768" x2="28.68" y2="3.768"/>
	
		<line clip-path="url(#SVGID_2_)" fill="none" stroke="#363334" stroke-miterlimit="10" x1="28.679" y1="16.995" x2="2.48" y2="16.995"/>
	
		<line clip-path="url(#SVGID_2_)" fill="none" stroke="#363334" stroke-miterlimit="10" x1="28.679" y1="44.887" x2="2.48" y2="44.887"/>
	<polyline clip-path="url(#SVGID_2_)" fill="none" stroke="#363334" stroke-miterlimit="10" points="6.314,17.282 6.314,20.03 
		6.314,44.886 	"/>
	
		<line clip-path="url(#SVGID_2_)" fill="none" stroke="#363334" stroke-miterlimit="10" x1="24.845" y1="17.282" x2="24.845" y2="44.886"/>
	
		<line clip-path="url(#SVGID_2_)" fill="none" stroke="#363334" stroke-width="0.5" stroke-miterlimit="10" x1="24.526" y1="20.158" x2="6.314" y2="20.158"/>
	
		<line clip-path="url(#SVGID_2_)" fill="none" stroke="#363334" stroke-width="0.5" stroke-miterlimit="10" x1="24.526" y1="41.564" x2="6.314" y2="41.564"/>
</g>
</svg>
