<svg version="1.1" xmlns="http://www.w3.org/2000/svg" xmlns:xlink="http://www.w3.org/1999/xlink" x="0px" y="0px" width="71px" height="39px" viewBox="0 0 71 39" overflow="visible" enable-background="new 0 0 71 39" xml:space="preserve">

<g>
	<defs>
		<rect id="SVGID_1_" width="71" height="38.955"/>
	</defs>

	<clipPath id="SVGID_2_">
		<use xlink:href="#SVGID_1_"  overflow="visible"/>
	</clipPath>

	<path 
		clip-path="url(#SVGID_2_)" 
		fill="#C03B27" 
		d="M39.823,21.036c1.193-1.424,2.004-2.66,1.475-5.965c-0.018,0.081-0.628,2.808-1.805,4.212c-1.194,1.424-2.004,2.66-1.476,5.963C38.04,25.146,38.649,22.436,39.823,21.036"
	/>

	<path clip-path="url(#SVGID_2_)" fill="#C03B27" d="M43.232,25.559c2.415-2.841,3.771-5.221-1.461-10.424
		c0.028,0.146,0.904,4.892-1.477,7.692c-1.203,1.415-2.143,2.321-2.137,4.321h4.13C42.524,26.147,42.828,26.034,43.232,25.559"/>
	<path clip-path="url(#SVGID_2_)" fill="#C03B27" d="M45.425,23.072c-0.021,0.094-0.597,3.075-1.701,4.075h1.456
		C45.581,26.147,45.729,24.977,45.425,23.072"/>
	<path clip-path="url(#SVGID_2_)" fill="#C03B27" d="M28.691,21.036c1.194-1.424,2.004-2.66,1.475-5.965
		c-0.018,0.081-0.628,2.808-1.805,4.212c-1.194,1.424-2.004,2.66-1.475,5.963C26.909,25.146,27.519,22.436,28.691,21.036"/>
	<path clip-path="url(#SVGID_2_)" fill="#C03B27" d="M32.101,25.559c2.415-2.841,3.77-5.221-1.461-10.424
		c0.028,0.146,0.904,4.892-1.477,7.692c-1.203,1.415-2.142,2.321-2.136,4.321h4.13C31.393,26.147,31.697,26.034,32.101,25.559"/>
	<path clip-path="url(#SVGID_2_)" fill="#C03B27" d="M34.293,23.072c-0.021,0.094-0.596,3.075-1.701,4.075h1.456
		C34.45,26.147,34.598,24.977,34.293,23.072"/>
	<path clip-path="url(#SVGID_2_)" fill="#C03B27" d="M16.25,21.036c1.194-1.424,2.004-2.66,1.475-5.965
		c-0.018,0.081-0.628,2.808-1.805,4.212c-1.194,1.424-2.004,2.66-1.475,5.963C14.468,25.146,15.078,22.436,16.25,21.036"/>
	<path clip-path="url(#SVGID_2_)" fill="#C03B27" d="M19.66,25.559c2.415-2.841,3.77-5.221-1.461-10.424
		c0.028,0.146,0.904,4.892-1.477,7.692c-1.203,1.415-2.142,2.321-2.136,4.321h4.13C18.953,26.147,19.256,26.034,19.66,25.559"/>
	<path clip-path="url(#SVGID_2_)" fill="#C03B27" d="M21.853,23.072c-0.021,0.094-0.596,3.075-1.701,4.075h1.456
		C22.009,26.147,22.157,24.977,21.853,23.072"/>
	<path clip-path="url(#SVGID_2_)" fill="#C03B27" d="M50.954,21.036c1.194-1.424,2.004-2.66,1.476-5.965
		c-0.019,0.081-0.629,2.808-1.806,4.212c-1.193,1.424-2.004,2.66-1.475,5.963C49.171,25.146,49.781,22.436,50.954,21.036"/>
	<path clip-path="url(#SVGID_2_)" fill="#C03B27" d="M54.364,25.559c2.414-2.841,3.77-5.221-1.462-10.424
		c0.028,0.146,0.904,4.892-1.477,7.692c-1.203,1.415-2.142,2.321-2.136,4.321h4.13C53.656,26.147,53.96,26.034,54.364,25.559"/>
	<path clip-path="url(#SVGID_2_)" fill="#C03B27" d="M56.556,23.072c-0.021,0.094-0.596,3.075-1.701,4.075h1.456
		C56.713,26.147,56.86,24.977,56.556,23.072"/>
	
		<rect 
			clip-path="url(#SVGID_2_)"
			fill="none"
			stroke="#363334"
			stroke-miterlimit="10"
			height="37.955"
			width="70" 
			x="0.5"
			y="0.5"
		/>
	
		<rect x="2.052" y="3.608" clip-path="url(#SVGID_2_)" fill="none" stroke="#363334" stroke-width="0.5" stroke-miterlimit="10" width="66.897" height="31.74"/>
	
		<rect x="5.657" y="9.046" clip-path="url(#SVGID_2_)" fill="none" stroke="#363334" stroke-miterlimit="10" width="59.687" height="20.864"/>
	
		<rect x="3.511" y="5.272" clip-path="url(#SVGID_2_)" fill="none" stroke="#363334" stroke-width="0.5" stroke-miterlimit="10" width="63.977" height="28.411"/>
		
		<polyline 
			clip-path="url(#SVGID_2_)" 
			fill="none" 
			stroke="#363334" 
			stroke-miterlimit="10" 
			points="61.729,9.045 59.619,11.709 35.204,11.709 35.796,11.709 11.38,11.709 9.271,9.045"
		/>
	
		<line 
			clip-path="url(#SVGID_2_)" 
			fill="none" 
			stroke="#363334" 
			stroke-width="0.5" 
			stroke-miterlimit="10" 
			x1="5.656" 
			y1="27.135" 
			x2="65.344" y2="27.135"
		/>
	</g>
</svg>
